<svg id="Layer_1" xmlns="http://www.w3.org/2000/svg" viewBox="0 0 193.16 193.11"><defs><style>.cls-1{fill:#010101;}.cls-2{fill:#030202;}.cls-3{fill:#040101;}.cls-4{fill:#fefefe;}.cls-5{fill:#c58731;}.cls-6{fill:#030201;}.cls-7{fill:#060101;}.cls-8{fill:#c28736;}.cls-9{fill:#c28836;}.cls-10{fill:#c38637;}.cls-11{fill:#c08538;}.cls-12{fill:#c0873a;}.cls-13{fill:#b68b4d;}.cls-14{fill:#ba853a;}.cls-15{fill:#b38956;}.cls-16{fill:#b2823e;}.cls-17{fill:#b58439;}.cls-18{fill:#b38541;}.cls-19{fill:#b8833c;}.cls-20{fill:#b98d4a;}.cls-21{fill:#adafa8;}.cls-22{fill:#a98a5c;}.cls-23{fill:#909090;}.cls-24{fill:#c7c7c7;}.cls-25{fill:#1a0a03;}.cls-26{fill:#8a6d4d;}.cls-27{fill:#b9833a;}.cls-28{fill:#b38c56;}.cls-29{fill:#bf8737;}.cls-30{fill:#b9b8b8;}.cls-31{fill:#414141;}.cls-32{fill:#919087;}.cls-33{fill:#c08737;}.cls-34{fill:#be8738;}.cls-35{fill:#b5833c;}.cls-36{fill:#be8539;}.cls-37{fill:#ab7e42;}.cls-38{fill:#af7f3c;}.cls-39{fill:#b98f53;}.cls-40{fill:#190803;}.cls-41{fill:#be863b;}.cls-42{fill:#c18538;}.cls-43{fill:#b58741;}.cls-44{fill:#bd863b;}.cls-45{fill:#bb853c;}.cls-46{fill:#bb8439;}.cls-47{fill:#b8863c;}.cls-48{fill:#b68e50;}.cls-49{fill:#080101;}.cls-50{fill:#020101;}.cls-51{fill:#080201;}.cls-52{fill:#090202;}.cls-53{fill:#bf8738;}.cls-54{fill:#c28737;}.cls-55{fill:#be873b;}.cls-56{fill:#c38738;}.cls-57{fill:#be8638;}.cls-58{fill:#c18739;}.cls-59{fill:#bf8639;}.cls-60{fill:#c18738;}.cls-61{fill:#bf8438;}.cls-62{fill:#1c0a05;}.cls-63{fill:#c48b42;}.cls-64{fill:#b78338;}.cls-65{fill:#bb8f47;}.cls-66{fill:#aa865d;}.cls-67{fill:#b48259;}.cls-68{fill:#fe7e64;}.cls-69{fill:#e87b68;}.cls-70{fill:#e67d67;}.cls-71{fill:#e77e69;}.cls-72{fill:#1f0b05;}.cls-73{fill:#fd7f64;}.cls-74{fill:#1c0b06;}</style></defs><path class="cls-1" d="M79.81,210.28a80.27,80.27,0,0,1-15-9.41c-17.85-13.89-29.71-31.78-35-53.77-6.25-26.19-2.29-51,11.91-73.86C54.59,52.48,73,38.73,96.44,31.69a91.8,91.8,0,0,1,32.32-3.77,96.07,96.07,0,0,1,57,22.58,7.14,7.14,0,0,1,.54.56c-.38.9-1.14.32-1.72.43-2.14-1.24-3.92-3-5.94-4.38A95,95,0,0,0,137.25,30.5a94,94,0,0,0-17.49-1,96.24,96.24,0,0,0-23.61,4A93.78,93.78,0,0,0,71.6,45a94.94,94.94,0,0,0-42.27,68.26,94.36,94.36,0,0,0-.52,15.94,74.35,74.35,0,0,0,1.56,12.68,3.15,3.15,0,0,0,.48,1.22c.57.47.82,1,.2,1.6a.66.66,0,0,0,.06,1,4.21,4.21,0,0,0,3.67,1.1c2.1-.29,3.35.66,4.34,2.43,2.09,3.75,5,6.89,7.74,10.17,3.59,4.33,7.24,8.62,10.9,12.89,3.09,3.61,6.21,7.18,9.57,10.55.5.5,1,1,1.49,1.5a6.24,6.24,0,0,1,1.84,4,90.14,90.14,0,0,0,3.07,15.91,2.47,2.47,0,0,0,1.2,1.5c1,.63,2,1.23,3.1,1.77a6.87,6.87,0,0,1,2.38,1.61C80.65,209.73,80.73,210.26,79.81,210.28Z" transform="translate(-26.92 -27.74)"/><path class="cls-2" d="M184.72,51.3c.48-.33,1.1.26,1.56-.24a84.74,84.74,0,0,1,12.48,12.78,47.55,47.55,0,0,1,4,5.39c-.58,1.54,1,1.6,1.6,2.38l.19.29c-.54.64,0,1.31-.07,2-.16.47.14.83.29,1.23a4.37,4.37,0,0,1,.29.67c2.57,8,.56,15.2-3.93,21.9-5.83,8.72-14.11,13.78-24.3,15.86a26.93,26.93,0,0,1-6.36.43c1.42.89,2.56,1.64,3.69,2.41a45.16,45.16,0,0,1,14.45,15.47,24.59,24.59,0,0,1,2.9,14.24c-.69,8.21-4.45,15-9.44,21.24a15.48,15.48,0,0,1-1.62,1.9c-.68.61-.55,1,.14,1.55a27.85,27.85,0,0,1,6.34,6.48c.85,1.31,2,2.47,2.23,4.13a2.56,2.56,0,0,1-.64,1.43c-.61.14-.74-.38-.91-.74a28.5,28.5,0,0,0-6.12-8,8.49,8.49,0,0,0-1.74-1.53,2.77,2.77,0,0,1-.29-.22c-1.31-1-1.31-1-2.62.14a50.77,50.77,0,0,1-6.06,4.21,3.69,3.69,0,0,1-1.29.63,2.88,2.88,0,0,1-1.17,0,.85.85,0,0,1-.41-.85c.15-.69.77-.89,1.29-1.18.87-.49,1.67-1.08,2.5-1.64a36.78,36.78,0,0,0,12.07-12.05,12.85,12.85,0,0,0,1.59-2.7,37.48,37.48,0,0,0,2.61-5.82,26.87,26.87,0,0,0,1.65-9.66A23.17,23.17,0,0,0,185.76,131c-.77-1.18-1.58-2.32-2.44-3.42a4.89,4.89,0,0,0-.73-1,54.21,54.21,0,0,0-13.86-11.36,14.36,14.36,0,0,0-5.66-1.88,52.5,52.5,0,0,1-9.32-2.24c-.53-.18-1.12-.29-1.44-.85-.23-1.09.4-1.3,1.27-1.2a12.21,12.21,0,0,1,1.74.49c1.92.63,3.92,1,5.83,1.61a7.3,7.3,0,0,0,1.2.31c1.39.28,2.81.07,4.21.26a34.32,34.32,0,0,0,28.75-10.23,30.41,30.41,0,0,0,8.45-15.07,18.71,18.71,0,0,0,0-7.23c-1.12-6.2-4.19-11.4-8.14-16.18a46.85,46.85,0,0,0-6-5.69,7.13,7.13,0,0,0-1.69-1.13,36.35,36.35,0,0,0-9.29-5.13c-.7-.27-1.41-.49-2.12-.7a45.48,45.48,0,0,0-10.11-2.24,34.75,34.75,0,0,0-9.28.17,4.5,4.5,0,0,1-.64.11,30.42,30.42,0,0,0-7.25,2,28.29,28.29,0,0,0-7.4,4.18,8.92,8.92,0,0,0-.92.7,36.47,36.47,0,0,0-8,9.35A22.06,22.06,0,0,0,130,79c.11.44.11.89.26,1.33a15.16,15.16,0,0,0,.55,2c.17.51.27,1,.45,1.55l.14.33c.31.85.64,1.69,1,2.52a60.56,60.56,0,0,0,8.33,13.59c.28.62,1,1,1,1.75-.22.38-.26.89-.72,1.11a2.64,2.64,0,0,1-1.55-1.16A58,58,0,0,1,128.83,82.7a22.85,22.85,0,0,1,2.81-19.83c6.18-9.68,15-15.4,26.47-16.69,9.16-1,17.71,1.07,25.86,5.16.4.2.73.49,1.11.71l.21.14.32.23c-.05-.11-.18-.11-.25-.2C185.11,51.93,184.51,51.9,184.72,51.3Z" transform="translate(-26.92 -27.74)"/><path class="cls-1" d="M204.24,74a1.18,1.18,0,0,0-.24-.85c-.61-.72,0-1,.51-1.21a85,85,0,0,1,8.73,16.79A94.17,94.17,0,0,1,220,127.51a95.67,95.67,0,0,1-20.79,56.72,94.35,94.35,0,0,1-20.59,19.35c-.22.15-.46.25-.69.38s-.83.25-1-.28.38-.5.63-.7a6.41,6.41,0,0,0,1.87-1.72,2.63,2.63,0,0,1,.5-.73,2,2,0,0,1,.68-.55,5.54,5.54,0,0,0,1.41-1c2.51-2,5-4.07,7.27-6.29a2.31,2.31,0,0,0,.77-2.79c-.19-.49-.18-1-.35-1.54a7.29,7.29,0,0,0-.3-1.11c-.32-1-.65-2-1-3-.16-.44-.44-.89-.08-1.37a2.69,2.69,0,0,1,.59-1.4c.73.08.83.72,1,1.22a36.22,36.22,0,0,1,2.14,6.92,17.63,17.63,0,0,0,3.29-3.48,94.43,94.43,0,0,0,21.51-45.37,88.54,88.54,0,0,0,1.43-19.7,95.29,95.29,0,0,0-9.47-38c-1.26-2.57-2.7-5-4-7.59-.13-.22-.19-.47-.34-.68S204.32,74.25,204.24,74Z" transform="translate(-26.92 -27.74)"/><path class="cls-3" d="M179.69,201.28c-.38,1.29-1.58,1.67-2.58,2.37l.83.31a21.58,21.58,0,0,1-4.05,2.62,7.19,7.19,0,0,0-1.57-.44,3.75,3.75,0,0,0-1.41.21c-6.54.89-13,2.3-19.55,3.09a46.12,46.12,0,0,1-6.31.42c-5.77-.12-11.51.31-17.26.72-4.29.31-8.6.41-12.9.64-5.21.29-10.44.48-15.63,1.15a14.93,14.93,0,0,1-4,0,5.11,5.11,0,0,0-3.87-.32,4.42,4.42,0,0,1-3.45-.25,5.12,5.12,0,0,0-2.21-.12c-1.09,0-2.18,0-3.27-.1a2.15,2.15,0,0,1-1.11-.54c0-.77-.61-.46-1-.51a.62.62,0,0,1-.58-.28c.63-.22.58-.65.36-1.14a1.18,1.18,0,0,1,1.25.14c2.12,1.39,4.57,1.22,6.9,1.31a87.64,87.64,0,0,0,13.15-.64c2.93-.34,5.87-.4,8.81-.63,4.69-.36,9.39-.52,14.08-.71,6.1-.26,12.17-1.08,18.29-.9a76.63,76.63,0,0,0,16.12-1.57c5.28-1,10.62-1.53,15.9-2.46,1.91-.37,2.13-.69,1.83-2.65a29.57,29.57,0,0,0-.75-3.95,20.17,20.17,0,0,0-2.09-5.38,6.34,6.34,0,0,1-.42-.82,1,1,0,0,1,.33-1.28c.49-.32.92-.1,1.27.3a6.8,6.8,0,0,1,.86,1.32,22.86,22.86,0,0,1,2.15,5.78c.15.85.31,1.71.46,2.56a3.78,3.78,0,0,1,.1.57,5.11,5.11,0,0,0,.13,1.28C178.94,201.56,179.27,201,179.69,201.28Z" transform="translate(-26.92 -27.74)"/><path class="cls-1" d="M82.51,211.61a10.84,10.84,0,0,1,5.87,0,4.77,4.77,0,0,0,3.22.07,3.42,3.42,0,0,1,3.6.41,1.48,1.48,0,0,1-1.12.35c-1.76,0-3.52,0-5.27,0l-.45-.06c-.17,0,.06-.08-.11,0s0,.07.13.07a99.69,99.69,0,0,0,24,6,92.56,92.56,0,0,0,17.22.43,98,98,0,0,0,17.54-2.76,93.55,93.55,0,0,0,22.92-9.24c.5-.28,1-.51,1.53-.75a3.23,3.23,0,0,0,.94-.39c.39.38,1.26,0,1.37.81a83.56,83.56,0,0,1-16.51,8.13,96.56,96.56,0,0,1-74.69-2.92A1,1,0,0,1,82.51,211.61Z" transform="translate(-26.92 -27.74)"/><path class="cls-1" d="M204.32,71.61c-.84.72-.75-.48-1.24-.61-1.09-.29-1-1-.36-1.77A10.35,10.35,0,0,1,204.32,71.61Z" transform="translate(-26.92 -27.74)"/><path class="cls-1" d="M80.39,210.56c.27-.41.69-.3,1.07-.3s.46.1.48.36-.27.4-.54.45A1.62,1.62,0,0,1,80.39,210.56Z" transform="translate(-26.92 -27.74)"/><path class="cls-4" d="M185.21,52.38A46.51,46.51,0,0,0,162,46.28C149.05,46.49,139,52.14,132,63a22.77,22.77,0,0,0-2.27,21.19,60.42,60.42,0,0,0,9.8,17.2c.5.61,1.09,1.14,1.63,1.71.61.1,1.06.46.87,1.05s-.82.33-1.25.21a84,84,0,0,0-12.24-2.68,33.9,33.9,0,0,0-14.62.83,1.25,1.25,0,0,1-.26.07c-.5.11-1.1.4-1.45-.13s.12-.91.39-1.3a40.55,40.55,0,0,0,7.3-20.1,34.62,34.62,0,0,0-7.92-25.56c-6.63-8.11-15.55-10.74-25.46-8.88C72,49.35,61.32,57.58,54.63,70.74a43.07,43.07,0,0,0-4.29,16,37,37,0,0,0,2.55,16.78c3,7.77,8.8,12.42,16.62,14.77a37.23,37.23,0,0,0,9,1.36,4.22,4.22,0,0,1,.79.07c.26,0,.56.11.62.4s-.16.49-.38.65a7.86,7.86,0,0,1-1.85,1,18.69,18.69,0,0,0-8.38,6.61,40.41,40.41,0,0,0-7.89,17,31.85,31.85,0,0,0-.47,3.53c0,.34-.1.73-.54.79s-.56-.23-.73-.48a94.4,94.4,0,0,0-6.22-8,2.1,2.1,0,0,1-.35-2,16.1,16.1,0,0,0,.57-4.83c-.1-1.41-.11-3-1.56-3.69s-2.54.54-3.64,1.32a7.63,7.63,0,0,0-1,1c-.9.91-1.29.88-2.09-.17a13.28,13.28,0,0,0-2.83-3.11,2,2,0,0,0-2.08-.44c-.83.38-.8,1.18-.83,1.93a13.36,13.36,0,0,0,.36,2.88c.27,1.58-.08,1.88-1.56,1.4a10.69,10.69,0,0,0-1.66-.44c-1.22-.17-1.71.32-1.58,1.57.07.66.46,1.25.3,1.94a.92.92,0,0,1-.84.54c-2.38.13-2.91.7-2.49,2.95.23,1.2-.39,1.43-1.32,1.49s-.64-.84-.72-1.24A85.25,85.25,0,0,1,28.47,120c2.24-33.62,17.63-59.5,46.21-77.35a88.78,88.78,0,0,1,39.33-13c26.36-2.44,49.81,4.83,70.37,21.47a1.86,1.86,0,0,0,.34.19l.78.79C185.56,52.35,185.5,52.47,185.21,52.38Z" transform="translate(-26.92 -27.74)"/><path class="cls-5" d="M175,204c-4.08.87-8.24,1.27-12.35,1.94-5,.81-9.94,1.86-15,2.06-1.4.06-2.81.2-4.21.17-6.48-.15-12.91.56-19.36.89-7,.36-14,.7-20.93,1.21-4.16.3-8.31.79-12.49.78-2.11,0-4.22-.09-6.33-.22-1.53-.09-2.68-1.26-4.11-1.67-1.91-1.09-3.81-2.19-5.72-3.26a2,2,0,0,1-1-1.29A133.82,133.82,0,0,1,70.3,189c0-.22-.13-.47-.06-.65.6-1.62-.49-2.52-1.44-3.47-8.5-8.56-16-18-23.78-27.16a59.26,59.26,0,0,1-6.7-9.12,2.55,2.55,0,0,0-2.8-1.44c-1.72.21-3.45.15-4.74-1.32-.11-1.11.33-1.63,1.57-1.89,1.54-.32,1.54-.32.73-1.62-.42-.66-.74-1.37-.25-2.08s1.38-.53,2.16-.37c.57.13,1.23.77,1.7.25s-.22-1.19-.37-1.8c0-.09-.07-.16-.09-.25-.18-.74-.83-1.57-.17-2.21s1.48,0,2.22.19a10,10,0,0,1,1,.61,5.9,5.9,0,0,1,1,1c.51.56.72.28.82-.29a43.55,43.55,0,0,0-.78-4.4,9.29,9.29,0,0,1-.09-2.23c.11-1,.65-1.28,1.56-.85a5.12,5.12,0,0,1,1.8,1.5,21.42,21.42,0,0,1,2.71,4c.59-.13.59-.6.74-.93a6.94,6.94,0,0,1,3.26-3.14c1.21-.62,2-.29,2.44,1a10.76,10.76,0,0,1,.18,4.69,27.1,27.1,0,0,1-.63,3.23,1.33,1.33,0,0,0,.2,1.16,1.87,1.87,0,0,1,.17.31c.34,1.07,1.3,1.62,2,2.38.54.54.82,1.36,1.65,1.6,2.37,2.7,4.4,5.5,4.75,9.31a31.84,31.84,0,0,0,3.69,12.3,31.21,31.21,0,0,0,7.51,10,46.07,46.07,0,0,0,21.8,10.5,2.37,2.37,0,0,1,1.33.51c.66.71,1.62.14,2.34.55a.54.54,0,0,1,.22.3c0,.46-.29.58-.65.67a10.69,10.69,0,0,0,2.19-.29,3.88,3.88,0,0,1,2.18-.26.75.75,0,0,1,.48.35.56.56,0,0,1-.51.69c3.32-.23,6.71,0,10.11-.12q6.67,0,13.35,0a27.15,27.15,0,0,0,6.31,0c1.86-.35,3.86,0,5.59-1a2.39,2.39,0,0,1,.34-.21,1.64,1.64,0,0,1,1.78.48c-.15-.49-.18-.81.17-1a1.24,1.24,0,0,1,.53-.15c.69,0,1.11.44,1.63.89.16-.94.68-1.46,1.56-1.43a6.71,6.71,0,0,0,3.84-1.48,7.72,7.72,0,0,1,3.27-1.08,4.62,4.62,0,0,1,.76,0c.48.14.22-.2.26-.34A20.9,20.9,0,0,1,156,183c1.15.28,2.2.24,2.87-.95a6.89,6.89,0,0,1,2.51-1.32c2.3-1,4.56-2.14,6.75-3.39a3.52,3.52,0,0,0,1.23-.38,57.78,57.78,0,0,0,7.3-4.8c1-1,2-.68,3,0h0a7.56,7.56,0,0,0,1.88,1.59,25.46,25.46,0,0,1,6.09,7.81c.22.42.46.84.7,1.25.37,1.49,1.22,2.82,1.36,4.38.27.29-.08.75.28,1a1,1,0,0,1,.13.23,4,4,0,0,1-1.45,5.28c-2.24,1.73-4.18,3.83-6.53,5.43-.61.14-.94.68-1.42,1l-.61.53a2.11,2.11,0,0,1-.34.16c-1.22.63-1.22.63-1.67-.68l0-.45c-.14-.91.14-1.91-.52-2.73a28.14,28.14,0,0,0-2.21-5.74c-.23-.38-.47-.74-.71-1.11s-.53-.64-1-.34-.28.69-.06,1.05a20.16,20.16,0,0,1,2.1,4.66c.14.45.21.93.31,1.4a10.83,10.83,0,0,1,0,4.13.5.5,0,0,0,0,.38A1.62,1.62,0,0,1,175,204Z" transform="translate(-26.92 -27.74)"/><path class="cls-4" d="M72,204C51.34,190.66,37.91,172,31.29,148.1a15.12,15.12,0,0,0,5.12.39c.44,0,.58.34.76.63,4.93,8,11.49,14.77,17.42,22,4.29,5.25,8.87,10.24,13.63,15.06a2.94,2.94,0,0,1,.85,2.09c.2,4.05,1.21,8,2,11.95C71.31,201.51,71.7,202.77,72,204Z" transform="translate(-26.92 -27.74)"/><path class="cls-6" d="M38.34,136.37c-.75-.09-1.68-.87-2.17-.28s.33,1.44.51,2.19,1.1,1.42.48,2.17-1.52-.09-2.28-.24-1.37-.44-1.83.16,0,1.33.37,1.91,1.09.81.73,1.54-1.1.34-1.67.43c-.93.14-1.74.4-1.7,1.58-.8-.53-.31-1.08.08-1.44s.43-.66-.07-.93c.94-.34,1.24-.76.84-1.89-.63-1.81.55-2.88,2.82-2.84.71.17.71.17.84-.31a16,16,0,0,1-.58-2c-.21-1.34.47-2,1.81-1.84a9.53,9.53,0,0,1,1.66.39c.49.17,1,.41,1.55.66a10.65,10.65,0,0,0-.38-2.69,9.91,9.91,0,0,1-.12-2.49c.2-1.65,1.39-2.27,2.84-1.48a10.72,10.72,0,0,1,3.62,3.77c.5.76.78.82,1.35.05a8.43,8.43,0,0,1,3.1-2.41c1.73-.84,3-.27,3.52,1.63a11.48,11.48,0,0,1-.06,6.26,3.31,3.31,0,0,0,.95,3.7,35.61,35.61,0,0,1,3,3.67,33.1,33.1,0,0,1,2.89,4.22,39.06,39.06,0,0,1,5.79-17.74c3.23-5.43,7.38-9.78,13.59-11.9a77.35,77.35,0,0,1-8.57-1.12c-11.21-2.64-18-9.7-20.37-20.87-3-14.11.66-26.63,10-37.4,7.42-8.56,16.88-13.89,28.23-14.87,11-1,19.77,3.28,25.63,12.87,7.06,11.54,7.23,23.47,1.94,35.7a33.94,33.94,0,0,1-4.62,8,37.47,37.47,0,0,1,15.06-1.35,76.61,76.61,0,0,1,14.77,3.19c0-.67-.67-.77-.79-1.25.09-.43-.17-1,.56-1.13a.49.49,0,0,1,.5,0c1.13.95,2.25,1.91,3.28,3,.75.77.47,1.35-.68,1.68a14.88,14.88,0,0,0-1.89-.14A70.52,70.52,0,0,0,128.72,103c-1-.17-1.94,0-2.89-.22a32,32,0,0,0-15,2.13c-.37.13-.74.29-1.1.44-.79.24-1.26.93-2,1.32s-1.26.56-1.76-.11,0-1.15.42-1.61c.61-.65,1.49-.92,2.13-1.52a4.78,4.78,0,0,1,.71-.64,13.18,13.18,0,0,0,2.7-3.07A28.17,28.17,0,0,0,115.49,93a13.2,13.2,0,0,0,.61-1.58,2.39,2.39,0,0,1,.15-.37,35.12,35.12,0,0,0,2.34-11.22,20.18,20.18,0,0,1,0-3.11,33.9,33.9,0,0,0-7.4-20.06,22.79,22.79,0,0,0-12.79-8.3c-.39-.13-.79-.18-1.19-.28-5.86-1.37-11.54-.52-17.07,1.55a44.43,44.43,0,0,0-16.79,10.9A42.56,42.56,0,0,0,51.77,85.31a35.11,35.11,0,0,0,2.57,18.2,22,22,0,0,0,12.13,12.2c6.15,2.58,12.53,2.85,19,2.37a44.3,44.3,0,0,0,4.44-.62,3.85,3.85,0,0,1,1-.14c1,.11,1.22.7.6,1.72a18.37,18.37,0,0,1-5.59,1c-.52,0-1,.14-1.54.2a13,13,0,0,0-4.77,1.82,2,2,0,0,1-.32.18c-.77.33-1.53.67-2.29,1a9.6,9.6,0,0,0-1.84,1,11.45,11.45,0,0,0-2.14,1.72,38.16,38.16,0,0,0-10.67,21.45,16.81,16.81,0,0,0-.1,5.75c-.12,2.05.52,4,.85,6a2.52,2.52,0,0,1,.12.39,31.83,31.83,0,0,0,2.13,6.06,3.66,3.66,0,0,1,.53,1.6c-.4,1.05-.47,1.06-1.44.2a29.37,29.37,0,0,1-3.72-12.23,15.09,15.09,0,0,0-3.07-7.39c-.49-.72-1.08-1.38-1.63-2.06-.8-.36-.91-1.34-1.62-1.78a10.8,10.8,0,0,1-2-2.48h0c-.43-.22-.33-.72-.57-1a24.12,24.12,0,0,0,.82-6.38c-.08-1,0-2.25-1-2.73s-1.79.48-2.53,1.06a4.56,4.56,0,0,0-2.14,3,.63.63,0,0,1-.57.63c-.43,0-.55-.34-.68-.67a14.37,14.37,0,0,0-3.27-4.59c-.45-.46-1-1.13-1.66-.85s-.46,1.17-.37,1.79c.23,1.56.56,3.11.84,4.67.08.42.29.85,0,1.26s-.83.64-1.31.1l-.83-1A1.29,1.29,0,0,0,38.34,136.37Z" transform="translate(-26.92 -27.74)"/><path class="cls-5" d="M109.45,103l-.59.58a8.15,8.15,0,0,0-2.58,1.68c-.38.46-.73,1-.25,1.49a1.16,1.16,0,0,0,1.56,0,22.39,22.39,0,0,0,1.87-1.64,30.38,30.38,0,0,1,16.38-2.67c.7,1,.08,1-.56,1a1,1,0,0,0,.65,0c2.45-.9,4.81-.12,7.18.37.45.09,1,.24,1.07.65.12,1.22,1,1,1.63.88a20.51,20.51,0,0,1,5.74.68c1,.18,1.88,1,3,1.06.44,0,.86.13,1.18-.31s.12-.84,0-1.25a2.78,2.78,0,0,0-1.19-1.38,9.09,9.09,0,0,1-2.8-2.72,3.29,3.29,0,0,0-1.23-1,46.09,46.09,0,0,1-6.23-9.26,24.83,24.83,0,0,1-2.14-4.51c-.27-.91-.26-1.93-1.06-2.63h0c-.26-.5,0-1.18-.52-1.59a4.78,4.78,0,0,1-.55-2.09,3.84,3.84,0,0,1-.09-1.47c0-.17-.05-.19,0,0s-.09.13-.15.19a18.39,18.39,0,0,1,.63-9.59A30.68,30.68,0,0,1,140.91,55c.47.09.65-.19.74-.59a24,24,0,0,1,7.35-4.2,43.75,43.75,0,0,0,7.45-2.06l.47-.05a11.09,11.09,0,0,1,2.23-.13c.21,0,.43,0,.44.33,0,.09-.14.18-.1.18a23.14,23.14,0,0,1,7.19.15,28.34,28.34,0,0,0,5.06.46,5.62,5.62,0,0,1,2.77.64,3.58,3.58,0,0,0,2.35.47,33.38,33.38,0,0,1,11.27,5.84,4.35,4.35,0,0,0,1.57,1.07,37.57,37.57,0,0,1,14.15,20.69A7.48,7.48,0,0,1,204,79a30.76,30.76,0,0,1,0,7.73,20.6,20.6,0,0,1-2.77,7.49c-5.65,9.94-14.27,15.7-25.44,17.78a9.07,9.07,0,0,1-1,.06,54,54,0,0,1-8.34,0,15.06,15.06,0,0,1-4.18-.28c.44-.28.91-.08,1.35-.13a12.12,12.12,0,0,1-2.4-.13,51.84,51.84,0,0,1-5.78-1.56c-.63-.17-.39-.72-.49-1.12a.94.94,0,0,1,.72-.23.91.91,0,0,0-.85.36c-.52.38-1.1.09-1.66.16-.93.12-1.1.55-.51,1.28a59.15,59.15,0,0,0,12.52,3,4.32,4.32,0,0,1,1.52.39,51.57,51.57,0,0,1,16.22,12.78c.21.24.24.63.6.74,6.54,7.74,8.15,16.38,4.71,25.93a11.6,11.6,0,0,1-2,3.13c-.73.67-.24,1.87-.64,2.75A8.72,8.72,0,0,1,184,161.7c-.62.3-.76,1.35-1.76,1.1-.29-.07-.16.22-.16.36a2,2,0,0,1-1.81,2.24c-.25,0-.05.09-.05.11.44,1.42-.88,1.84-1.56,2.54-.47.48-1.1.79-1.47,1.43-.2.34-.49.82-1,.72s-.41-.69-.55-1.1c-.21.35,0,.63.13.92a.69.69,0,0,1-.23.92c-.32.29-.58.3-.87,0s-.61-.12-.91.08c-.87.56-1.7,1.16-2.67,1.76.47-.1.93-.36,1.18,0s-.33.74-.45,1.13L168,176.39a1.4,1.4,0,0,1-.95.85,6.39,6.39,0,0,0-1.19.54,92.47,92.47,0,0,1-12.76,5.54,5,5,0,0,1-1.27.32,2.3,2.3,0,0,0-1.38.34,1.42,1.42,0,0,1-.33.11c-.49.11-1,0-1.47.33a1.07,1.07,0,0,1-.33.11c-.93-.53-1,.6-1.49.81a70.88,70.88,0,0,1-14.64,3.6,5.27,5.27,0,0,1-1,0,14.79,14.79,0,0,1-4.78-.47,6.41,6.41,0,0,0-2.94.49c-.88.4-2,0-2.95.45a1.82,1.82,0,0,1-1.08-.09c-2.67-.23-5.28-1.23-8-.61a.86.86,0,0,1-.42,0,8.94,8.94,0,0,0-6.14-.4,2.78,2.78,0,0,1-3.29-.89c0-.06,0-.19-.1-.17-1.11.57-2.18-.44-3.32,0a3.14,3.14,0,0,1-2.56-.13,3.09,3.09,0,0,0-1.4-.23H93a31.51,31.51,0,0,1-8.28-2.48A38.64,38.64,0,0,1,71.87,176c-1.91-1.89-3.89-3.8-5-6.39,0-.73.42-1.55-.68-1.94-.38-.14-.34-.68-.47-1-.71-1.92-1.71-3.72-2.37-5.66-.16-.47.42-1.18-.45-1.41h0a2,2,0,0,1-.06-1.15,3.34,3.34,0,0,0-.5-2.19,3.84,3.84,0,0,1-.22-1.53c0-.5.18-1.06-.26-1.49-.61-7.06,1.44-13.46,4.93-19.46,1.69-2.92,3.42-5.85,6.13-8a.93.93,0,0,1,.88-.14.15.15,0,0,1,.13.16c.08-.06.06-.12,0-.18.08-.74.83-.94,1.15-1.48a4.22,4.22,0,0,1,1.85-1c.83-.28,1.77-.31,2.36-1.11v0c1.62-.65,3.43-.86,4.8-2.09a59.41,59.41,0,0,0,7.28-1.07c1.55-.74-.24-1.37-.1-2.12-.15.78-.93.66-1.37,1-7.46,1.38-14.85,1.39-22.11-1.17-8.09-2.85-12.93-8.67-15.12-16.79-3.73-13.9-.38-26.29,8.48-37.3,6-7.51,14-12.14,23.32-14.56a24.55,24.55,0,0,1,12.9-.11c.29.35.75,0,1.06.27a21.74,21.74,0,0,1,12,7.15A34.88,34.88,0,0,1,119,75.73c0,.31,0,.62,0,.92-.74,1.21-.28,2.57-.41,3.85a39.32,39.32,0,0,1-1.63,8.82c-.24.71-.28,1.46-.56,2.15h0c-1,.19-.77.89-.59,1.55a22.82,22.82,0,0,1-3.59,6.9A14.07,14.07,0,0,0,109.45,103Z" transform="translate(-26.92 -27.74)"/><path class="cls-4" d="M205,75.09a91.84,91.84,0,0,1,12.35,33,94.3,94.3,0,0,1-9.84,61.06,92.66,92.66,0,0,1-14.18,19.91c-.39.42-.78.82-1.32,1.38-.79-3.17-1.41-6.25-3-9a27.23,27.23,0,0,0-8.86-10.58c-.87-.65-.94-.93-.16-1.78,6.07-6.58,10.4-14,11.21-23.16.65-7.38-1.87-13.72-6.47-19.36a51.51,51.51,0,0,0-14.36-12.26,1.47,1.47,0,0,1-.53-.46c1.91-.16,3.81-.15,5.68-.49,14-2.53,24-10.09,29.13-23.58a20.91,20.91,0,0,0,.39-13c-.1-.38-.18-.76-.27-1.15S204.48,75.1,205,75.09Z" transform="translate(-26.92 -27.74)"/><path class="cls-7" d="M67.2,169.64a30.24,30.24,0,0,0,7.88,8.75,42.36,42.36,0,0,0,17.68,8.13,15.77,15.77,0,0,0,1.68.23c3,.63,6.11.72,9.09,1.49a20.35,20.35,0,0,0,2.34.1,68.93,68.93,0,0,0,7.3.64c3.26,0,6.52.28,9.79.14a3.47,3.47,0,0,0,1.15-.24,3.72,3.72,0,0,1,1.2-.12c1.93-.06,3.87.1,5.81-.14A63.74,63.74,0,0,0,147,184.93a4.19,4.19,0,0,1,1.61-.53h0c.44-.5,1.11-.32,1.65-.53a.16.16,0,0,0,.18,0,3.37,3.37,0,0,1,1.37-.49,87.19,87.19,0,0,0,12.65-5.12c.51-.25,1-.48,1.54-.71.35-.2.8-.16,1.08-.52l1-.6.29.86c.09.05.13.11.09.17s-.06.08-.09.08a51.83,51.83,0,0,1-8.34,4.23c-.31.14-.61.3-.92.45-.76.92-1.9.84-2.9,1.13l-5,1.84c-.21.23-.52.16-.76.27a18.41,18.41,0,0,0-3.42,1.09,25.09,25.09,0,0,1-7.2,2.07l-.47.08c-.53.53-1.27.18-1.85.46h0A11.32,11.32,0,0,1,134,190a84.51,84.51,0,0,1-8.84.74H111.65c-2.3-.24-4.63-.16-6.93-.38a5.6,5.6,0,0,1-2.66-.62l-.47-.05a7.45,7.45,0,0,0-2.16-.07c-.55,0-1.14,0-1.55-.49v0c-.87-.29-1.86.05-2.66-.53A68.38,68.38,0,0,1,84,185.18a42.58,42.58,0,0,1-13.12-8.65,29.77,29.77,0,0,1-6.42-9c.34-.28,1.16,1.15,1.16-.32A3.88,3.88,0,0,1,67.2,169.64Z" transform="translate(-26.92 -27.74)"/><path class="cls-8" d="M140.53,100.45a1.41,1.41,0,0,1,1.66.94,4.49,4.49,0,0,0,2.26,2.24c1.13.52,1.5,1.65,1.91,2.68.2.5-.89,1.63-1.25,1.35-.88-.68-2.28,0-2.93-1.15-.13-.26-.43-.26-.7-.28a37.72,37.72,0,0,0-7.43-.54,2.35,2.35,0,0,1-.6-.07c-.24-.66.94-.26.59-.89-.22-.39-.71-.45-1.06-.66-1.37-.81-2.95-.47-4.4-.8-.93-.22-2.32.3-3.52.31a1.76,1.76,0,0,1-1.3-.25,1.28,1.28,0,0,1,1.42-.08c.81.27.74-.24.66-.76A54.39,54.39,0,0,1,143,106.27c.63.23,1.31,0,1.94.19.83-.32.84-.79.22-1.34-1.16-1.05-2.32-2.08-3.49-3.12C141.46,101.36,140.65,101.16,140.53,100.45Z" transform="translate(-26.92 -27.74)"/><path class="cls-9" d="M171.8,173.91c-.11-.4.25-.69.33-1.06-.71-.2-1.11.82-1.82.23.42-1,1.6-1.08,2.29-1.78.31-.32.87-.52,1.25-.87s.74-.53,1.05.07c.09.16-.06.66.39.28.2-.16.53-.43.24-.63-1.2-.82.14-1.32.07-2.35.57.89.24,1.55.51,2.12.12,0,.32,0,.34,0,.57-1.35,1.93-1.9,2.89-2.86s1.07-1.07-.08-2c.64-.31,1.46.62,2.06-.55.33-.65.57-1.06.25-1.67-.17-.31,0-.66.16-.51,1.07.87,1.47-.54,2.25-.56A35.58,35.58,0,0,1,171.8,173.91Z" transform="translate(-26.92 -27.74)"/><path class="cls-10" d="M176.86,50.22a1.79,1.79,0,0,1-2.55-.19,3.16,3.16,0,0,0-2.72-.42c-.13,0-.3.14-.38.09-1.66-1-3.63-.05-5.3-.84a2.88,2.88,0,0,0-1.28-.19c-1.92,0-3.84,0-5.77,0,0-.4.41-.16.49-.55h-2.43a27.68,27.68,0,0,1,9.12-.35A38.37,38.37,0,0,1,176.86,50.22Z" transform="translate(-26.92 -27.74)"/><path class="cls-11" d="M156.45,48.17c0,.29-.18.51-.5.48a1.43,1.43,0,0,0-1.59.75.55.55,0,0,1-.41.28c-1.69-.16-3.24.94-4.95.55A24.16,24.16,0,0,1,156.45,48.17Z" transform="translate(-26.92 -27.74)"/><path class="cls-12" d="M185.52,159.11c-.85-2.74,1.56-4,2.65-5.88A22.91,22.91,0,0,1,185.52,159.11Z" transform="translate(-26.92 -27.74)"/><path class="cls-13" d="M204,86.72V79A14.9,14.9,0,0,1,204,86.72Z" transform="translate(-26.92 -27.74)"/><path class="cls-14" d="M152.6,110.41c-.27,0-.86.08-.7-.23.24-.46.12-1.32,1-1.31h2l.52,1.09c-.63-.18-1.25-.36-1.89-.52C152.65,109.23,152.34,109.56,152.6,110.41Z" transform="translate(-26.92 -27.74)"/><path class="cls-15" d="M166.4,112.06h8.33A21.62,21.62,0,0,1,166.4,112.06Z" transform="translate(-26.92 -27.74)"/><path class="cls-16" d="M179.7,172.22a4,4,0,0,0-3,0C178.16,170.73,178.16,170.73,179.7,172.22Z" transform="translate(-26.92 -27.74)"/><path class="cls-17" d="M131.1,84.05c1.44.44,1,1.64,1.06,2.63A8,8,0,0,1,131.1,84.05Z" transform="translate(-26.92 -27.74)"/><path class="cls-16" d="M181.58,173.8c-1,0-1.47-.81-1.88-1.59A6,6,0,0,1,181.58,173.8Z" transform="translate(-26.92 -27.74)"/><path class="cls-18" d="M141.65,54.43c-.13.41.66.63.3,1s-.74-.11-1-.38A1.35,1.35,0,0,1,141.65,54.43Z" transform="translate(-26.92 -27.74)"/><path class="cls-19" d="M189.7,57.13a1.38,1.38,0,0,1-1.57-1.07A3.07,3.07,0,0,1,189.7,57.13Z" transform="translate(-26.92 -27.74)"/><path class="cls-20" d="M161.17,111.52h2.91a4.26,4.26,0,0,1-1.86.26A1.35,1.35,0,0,1,161.17,111.52Z" transform="translate(-26.92 -27.74)"/><path class="cls-21" d="M185.21,52.38l.29-.29a1.68,1.68,0,0,1,1,1A2.13,2.13,0,0,1,185.21,52.38Z" transform="translate(-26.92 -27.74)"/><path class="cls-17" d="M130.58,82.46c.94.28.36,1.06.52,1.59A3.33,3.33,0,0,1,130.58,82.46Z" transform="translate(-26.92 -27.74)"/><path class="cls-22" d="M129.77,79.08l0-.51.22,0v1.82A2.07,2.07,0,0,1,129.77,79.08Z" transform="translate(-26.92 -27.74)"/><path class="cls-23" d="M204.24,74a.81.81,0,0,1,.49.6c-.09.18,0,.45-.26.55C204.33,74.74,203.89,74.43,204.24,74Z" transform="translate(-26.92 -27.74)"/><path class="cls-1" d="M202.79,71.54a.58.58,0,0,1,0,.75.23.23,0,0,1-.21,0C202.38,72,202.58,71.82,202.79,71.54Z" transform="translate(-26.92 -27.74)"/><path class="cls-24" d="M204.47,75.11c.05-.2,0-.44.26-.55l.25.53-.26.58Z" transform="translate(-26.92 -27.74)"/><path class="cls-25" d="M168.33,177.5v-.25a1.7,1.7,0,0,1,1.07-.26A1.3,1.3,0,0,1,168.33,177.5Z" transform="translate(-26.92 -27.74)"/><path class="cls-26" d="M183.46,127.3c-.56,0-.61-.31-.6-.74A1.23,1.23,0,0,1,183.46,127.3Z" transform="translate(-26.92 -27.74)"/><path class="cls-27" d="M178.12,200.22c.4,1.23,1.29.52,2,.52l-.44.54-1.23.68A2.69,2.69,0,0,1,178.12,200.22Z" transform="translate(-26.92 -27.74)"/><path class="cls-27" d="M180.74,200.21c.24-.67.63-1.12,1.42-1A2.59,2.59,0,0,1,180.74,200.21Z" transform="translate(-26.92 -27.74)"/><path class="cls-28" d="M190,188.26c-.56-.21-.19-.68-.28-1A1.34,1.34,0,0,1,190,188.26Z" transform="translate(-26.92 -27.74)"/><path class="cls-4" d="M94.29,212.12a1.07,1.07,0,0,0,.91,0c2.74.19,5.42-.43,8.13-.58,6.54-.37,13.09-.64,19.62-1.13,9-.67,18.09-.74,27.13-1.29,5.4-.33,10.66-1.69,16-2.43l5.08-.71c.3,0,.7-.34.82.25a95.36,95.36,0,0,1-84,6.39h-.13c0-.56.43-.3.68-.37C90.44,212.17,92.37,212.37,94.29,212.12Z" transform="translate(-26.92 -27.74)"/><path class="cls-29" d="M175,204a.52.52,0,0,1,.53-.6.54.54,0,0,0,.47-.77c-.42-.93,0-1.88-.08-2.71-.15-1,.29-2,.14-2.94a20,20,0,0,1,1,5.36C177.11,203.64,175.94,203.79,175,204Z" transform="translate(-26.92 -27.74)"/><path class="cls-27" d="M177.56,197c1,.76.87,1.72.52,2.73A10.15,10.15,0,0,1,177.56,197Z" transform="translate(-26.92 -27.74)"/><path class="cls-30" d="M172,206.23l-.82-.25a1.9,1.9,0,0,1,1.34-.21C172.49,206.09,172.26,206.17,172,206.23Z" transform="translate(-26.92 -27.74)"/><path class="cls-3" d="M94.29,212.12a25.68,25.68,0,0,1-5.94.21c-.1,0-.13-.08-.11-.14s.05-.08.07-.08Z" transform="translate(-26.92 -27.74)"/><path class="cls-31" d="M88.31,212.11a1.43,1.43,0,0,1,0,.22c-.16.11-.43,0-.51.28-.28,0-.68-.07-.57-.31C87.46,211.89,88,212.17,88.31,212.11Z" transform="translate(-26.92 -27.74)"/><path class="cls-32" d="M35.29,138.42c.16.15.34.35.09.49a.84.84,0,0,1-.93-.18C34.71,138.58,35.12,138.84,35.29,138.42Z" transform="translate(-26.92 -27.74)"/><path class="cls-33" d="M102.06,189.69l9.59,1H100C100.59,189.74,101.74,190.75,102.06,189.69Z" transform="translate(-26.92 -27.74)"/><path class="cls-34" d="M125.2,190.69l8.6-1c1.21-.16,2.42-.37,3.63-.56a2.05,2.05,0,0,1-1.76,1A53.91,53.91,0,0,1,125.2,190.69Z" transform="translate(-26.92 -27.74)"/><path class="cls-34" d="M139.75,188.58l7.2-2.07a5.31,5.31,0,0,1-3.6,1.57c-1.1,0-1.1,0-1.19,1.15a.38.38,0,0,1-.3.38.74.74,0,0,1-.71-.21C140.75,189,140.42,188.51,139.75,188.58Z" transform="translate(-26.92 -27.74)"/><path class="cls-33" d="M97.88,189.08a16.64,16.64,0,0,1,3.71.56c-1.55,0-3,.88-4.58.55-.36-.08-.78.14-1.13-.23C96.35,189.19,97.62,190.24,97.88,189.08Z" transform="translate(-26.92 -27.74)"/><path class="cls-35" d="M156.17,183.31a13.63,13.63,0,0,1,2.9-1.13C158.57,183.77,157.35,183.49,156.17,183.31Z" transform="translate(-26.92 -27.74)"/><path class="cls-36" d="M52.45,141.57a11.67,11.67,0,0,1,2.09,2.4c.09.07.11.13.08.19s-.07.09-.1.09C53.61,143.53,52.4,143,52.45,141.57Z" transform="translate(-26.92 -27.74)"/><path class="cls-34" d="M137.43,189.12a5.59,5.59,0,0,1,1.85-.46c-.37.75.74.25.63.82C139,190.16,138.3,188.91,137.43,189.12Z" transform="translate(-26.92 -27.74)"/><path class="cls-37" d="M54.52,144.25l0-.28a6.22,6.22,0,0,1,1.52,1.86C55,145.87,55,144.83,54.52,144.25Z" transform="translate(-26.92 -27.74)"/><path class="cls-33" d="M95.21,188.57a8.39,8.39,0,0,1,2.66.53l-2,0C95.53,189.14,95.24,189,95.21,188.57Z" transform="translate(-26.92 -27.74)"/><path class="cls-38" d="M40,137.86a1.31,1.31,0,0,0,1.31-.1C41,138.93,40.52,138.55,40,137.86Z" transform="translate(-26.92 -27.74)"/><path class="cls-39" d="M150.37,185.42a.94.94,0,0,1,.76-.27c.08,0,.18,0,.24.06s0,.22-.06.2C151,185.36,150.68,185.71,150.37,185.42Z" transform="translate(-26.92 -27.74)"/><path class="cls-36" d="M51.9,140.54l.57,1C51.7,141.55,52,141,51.9,140.54Z" transform="translate(-26.92 -27.74)"/><path class="cls-40" d="M38.34,136.37c.43-.05.86-.1.86.54Z" transform="translate(-26.92 -27.74)"/><path class="cls-41" d="M116.35,91.47a5.53,5.53,0,0,1,.48-2.88,24.07,24.07,0,0,0,1.31-7.24c.08-1.16.63-2.33.32-3.54-.1-.4-.24-1,.49-1.16a35.92,35.92,0,0,1-2.1,13.78A2.07,2.07,0,0,1,116.35,91.47Z" transform="translate(-26.92 -27.74)"/><path class="cls-42" d="M67.2,169.64l-1.56-2.45c-1-2.5-2.29-4.9-2.69-7.61.41.15.6-.71,1-.25.27.31-.07.62-.27.91s-.14.57-.08.6c1.06.53.23,1.74.93,2.47.26.27.2.87.77,1a.8.8,0,0,1,.52.83c0,1.65.16,1.81,1.68,2.47a.4.4,0,0,1,.14.66A1.77,1.77,0,0,0,67.2,169.64Z" transform="translate(-26.92 -27.74)"/><path class="cls-43" d="M109.46,105.16c-.74,1.08-1.39,2.3-3,2.11-.79-.1-1.27-.36-.81-1.37a4,4,0,0,1,3.19-2.32c-.63.81-1.71,1-2.38,1.75-.3.34-.65.67-.33,1.13s.81.3,1.26.06C108.14,106.13,108.63,105.4,109.46,105.16Z" transform="translate(-26.92 -27.74)"/><path class="cls-42" d="M61.93,153.22c.65.09.5.6.53,1a7.42,7.42,0,0,0,.11,1.94c.62.16.23-.75.91-.64a22.11,22.11,0,0,1-.51,4A19.36,19.36,0,0,1,61.93,153.22Z" transform="translate(-26.92 -27.74)"/><path class="cls-44" d="M84.11,119.94c-1.13,1.78-3,1.93-4.79,2.09A12.18,12.18,0,0,1,84.11,119.94Z" transform="translate(-26.92 -27.74)"/><path class="cls-45" d="M89.92,117.78c0-.57,1.29-.42.76-1.36-.06-.11.88-.17.88-.12a9.25,9.25,0,0,0,.77,1.89c.09.24-.41.73-.94.68.64-.9.38-1.29-.69-1.2C90.44,117.69,90.18,117.74,89.92,117.78Z" transform="translate(-26.92 -27.74)"/><path class="cls-46" d="M109.45,103c.22-1.63,1.43-2.4,2.73-3.08A10.33,10.33,0,0,1,109.45,103Z" transform="translate(-26.92 -27.74)"/><path class="cls-41" d="M115.77,93c-.94-.38-.59-1.25-.41-1.74.25-.64.6.38,1,.19A3,3,0,0,1,115.77,93Z" transform="translate(-26.92 -27.74)"/><path class="cls-44" d="M79.32,122c-.3,1.41-1.41,1.08-2.36,1.11A8,8,0,0,1,79.32,122Z" transform="translate(-26.92 -27.74)"/><path class="cls-47" d="M74.08,125.76H73a5.78,5.78,0,0,1,2.12-1.64C75.13,124.89,74.13,125,74.08,125.76Z" transform="translate(-26.92 -27.74)"/><path class="cls-5" d="M144.94,106.46c-.65,0-1.33.24-1.94-.19C143.64,106.38,144.32,106.08,144.94,106.46Z" transform="translate(-26.92 -27.74)"/><path class="cls-48" d="M98.45,48.12c-.42,0-.84,0-1.26,0-.21,0-.14-.14,0-.22a.84.84,0,0,1,.24-.06A1.44,1.44,0,0,1,98.45,48.12Z" transform="translate(-26.92 -27.74)"/><path class="cls-49" d="M120.05,156.83c-.32-.41-.63-.84-1-1.25a8,8,0,0,1-1.36-7.21c.12-.55.25-1.11.4-1.66.49-1.89.49-1.89-1.27-2.47-.74-.84.11-1,.57-1.27a1.68,1.68,0,0,1,1,0c3.41.63,6.82.19,10.22-.1a33.87,33.87,0,0,1,3.35-.54c.56-.19,1.17.07,1.73-.18v0a6.66,6.66,0,0,1,3-.47,1.42,1.42,0,0,1,1.37,1.06,45.73,45.73,0,0,1,2.08,6.28,7.93,7.93,0,0,1-1,5.43c-2.3,3.06-5.15,5.23-9.11,5.58l-.08,0-.08,0a6.89,6.89,0,0,1-5.81-.5l-.07-.06-.1,0A5.66,5.66,0,0,1,120.05,156.83Z" transform="translate(-26.92 -27.74)"/><path class="cls-50" d="M136.62,134.23l-.22,0a14.76,14.76,0,0,1-.85-3.8c-.4-4.45-.5-8.91-.56-13.37,0-.77.63-1.37.49-2.15.18-.46.6-.77.77-1.24a.73.73,0,0,1,.35-.25,1.48,1.48,0,0,1,1.28.16c2,2.26,2.17,5.12,2.42,7.88a60.39,60.39,0,0,1,.07,9.32,18.53,18.53,0,0,1-.54,2C138.73,134.48,138.44,134.61,136.62,134.23Z" transform="translate(-26.92 -27.74)"/><path class="cls-50" d="M113.7,118.89c.41-1.48.43-3,1-4.49.25-.67.43-1.47,1.3-1.46s1.09.8,1.25,1.49a36.71,36.71,0,0,1,.14,16.84c-.19.86-.38,2-1.57,2s-1.25-1.23-1.4-2.12c-.27-1.6-.46-3.22-.69-4.82A15.48,15.48,0,0,1,113.7,118.89Z" transform="translate(-26.92 -27.74)"/><path class="cls-51" d="M154.87,133.19a.13.13,0,0,0-.16-.07,2.64,2.64,0,0,1-1.4-1.1,3.8,3.8,0,0,1,0-4.7,6.09,6.09,0,0,1,4.25-2.59h0c1.28-.82,2.57-1.63,4.2-1.07h.44a9.17,9.17,0,0,1,6.06,2,3.16,3.16,0,0,1,1.4,2.8c-.79,3.28-3.46,4.56-6.19,5.73a10.28,10.28,0,0,1-4.54.53,5.13,5.13,0,0,1-1.92-.52h0C156.25,133.94,155.33,134.05,154.87,133.19Z" transform="translate(-26.92 -27.74)"/><path class="cls-52" d="M96.57,137.44a13.73,13.73,0,0,1-4-.57,3.57,3.57,0,0,1-2.26-5.33,8.07,8.07,0,0,1,4.52-3.75c2.69-1.09,5.17-.63,7.65.34,3.41,1.34,3.9,4.9,1,7.16A10.36,10.36,0,0,1,96.57,137.44Z" transform="translate(-26.92 -27.74)"/><path class="cls-53" d="M139.53,132.89a18.8,18.8,0,0,0,.81-6.87,36.15,36.15,0,0,0-1.09-8.84,9.17,9.17,0,0,0-1.56-3.56,1.18,1.18,0,0,0-1.31,0h0c-.22.32-.16.8-.54,1a8.73,8.73,0,0,0-.48,3,77.53,77.53,0,0,0,1,16.59c-.86-.59-.67-1.64-1.06-2.43a.46.46,0,0,1,0-.26c.39-2.84-.68-5.58-.53-8.4a22.33,22.33,0,0,0,0-5.54c-1-1.1-.38-2.33-.49-3.76.75.62.26,1.31.7,1.78.52-.26.28-.75.31-1.13a2.12,2.12,0,0,1,1.6-1.86c.84-.26,1.38.3,1.61,1.13,0,.08.05.2.11.24,2.11,1.23,1.4,3.34,1.69,5.18.62,3.92.19,7.86.22,11.78,0,1.16-.08,2.63-1.53,3.27C138.92,133.67,139.35,133.33,139.53,132.89Z" transform="translate(-26.92 -27.74)"/><path class="cls-54" d="M132.22,142.48c-4.68,1-9.36,1.67-14.15.84-.7-.13-1.43-.21-1.2.92-.29,0-.52-.13-.52-.47,0-.66,2-2.42,2.58-2.12,1.45.8,3,.55,4.47.43s2.55.61,3.9.63c1.68,0,3.19-.93,4.87-.58A.22.22,0,0,1,132.22,142.48Z" transform="translate(-26.92 -27.74)"/><path class="cls-55" d="M123.6,133.29c-.2.58-.83.23-1,.94,2.22-.22,4.39.41,6.52-.38.51-.18.83-.22,1,.39a1.2,1.2,0,0,0,.33.55c.53.47,1.17,1,.63,1.72s-1,1.58-2.15,1.41a2.12,2.12,0,0,0-1.72.42c-1,.82-2.44.39-3.57,1-.27.14-.36-.14-.4-.36-.08-.47-.42-.47-.79-.51-1.77-.19-2.59-1.14-2.43-2.78a.36.36,0,0,1,.31-.34c.7-.17,1.19-.27,1.07-1.33C121.3,133.57,122.56,132.92,123.6,133.29Z" transform="translate(-26.92 -27.74)"/><path class="cls-56" d="M105.7,188.62a90.13,90.13,0,0,1-11.57-1.7c-.13-.15-.15-.29,0-.43a3.11,3.11,0,0,1,1.74.34,2.21,2.21,0,0,0,2.14.08c.68-.36,1.07,0,1.61,0A6.17,6.17,0,0,1,103,188a2.27,2.27,0,0,0,1.91,0c2.07-1,4-.32,6,.28.08,0,.1.23.14.35a2.3,2.3,0,0,1-1.87.23C108,188.64,106.84,188.9,105.7,188.62Z" transform="translate(-26.92 -27.74)"/><path class="cls-57" d="M139,154.52a7.87,7.87,0,0,0,.79-6.6c-.51-1.72-1.2-3.39-1.84-5.07a1.48,1.48,0,0,0-1.8-1c-.78.12-1.57.19-2.35.29,0-.09,0-.22,0-.26a3.3,3.3,0,0,1,4.75,1c.34.69,1,1.25.69,2.21a1.33,1.33,0,0,0,.87,1.29c.67.21.77.79.16,1.23-.27.19-.23.41-.14.51.86,1.1.51,2.39.4,3.54a5,5,0,0,1-1,2.86A.41.41,0,0,1,139,154.52Z" transform="translate(-26.92 -27.74)"/><path class="cls-53" d="M139,154.52l.58,0c-.16.63.65.93.53,1.56-.05.29,0,.64-.35.75a.49.49,0,0,1-.69-.4c-.17-.78-.47-.33-.77-.09-1.16.94-2.55,1.65-3,3.27,0,.1-.19.28-.22.27-1.66-.79-3.24.75-4.88.16a14.3,14.3,0,0,0,8.76-5.54Z" transform="translate(-26.92 -27.74)"/><path class="cls-58" d="M105.7,188.62l5.34,0h.26c.69-.55,1.28.16,1.86.14,1.4-.05,2.77.21,4.17.14a3.36,3.36,0,0,1,2.16.24h1.05a7.34,7.34,0,0,1,3.78,0,52.93,52.93,0,0,1-8.54.23A63.11,63.11,0,0,1,105.7,188.62Z" transform="translate(-26.92 -27.74)"/><path class="cls-59" d="M169.64,128.45c-.84-3-3.28-3.87-5.93-4.46a4.22,4.22,0,0,1-1.53-.31c1.07-.82,1.95-.34,3.09.09s2.25,1.64,3.74,1.48c.21,0,.58.07.46.29-.42.75.16,1.25.44,1.74S169.52,128,169.64,128.45Z" transform="translate(-26.92 -27.74)"/><path class="cls-60" d="M120.05,156.83a15.84,15.84,0,0,0,4,2.7,6.9,6.9,0,0,0-2.24.41c-.88.42-1.29-.92-2.16-1.13-.38-.09-.19-.83.09-1.26A3.5,3.5,0,0,0,120.05,156.83Z" transform="translate(-26.92 -27.74)"/><path class="cls-56" d="M119.49,189.12c-1.89,0-3.78,0-5.66,0-.92,0-1.58-.89-2.53-.55.06-.46.38-.5.76-.53,2.38-.22,4.67.85,7.06.57C119.35,188.62,119.45,188.89,119.49,189.12Z" transform="translate(-26.92 -27.74)"/><path class="cls-61" d="M113.7,118.89c0,2.47,0,4.94,0,7.41-1-1.6-1.61-3.23-.62-5.1.19-.35.06-.86.08-1.3S113.05,119,113.7,118.89Z" transform="translate(-26.92 -27.74)"/><path class="cls-53" d="M124.24,159.57a19.58,19.58,0,0,0,5.81.5,1.85,1.85,0,0,1-2.07,1,13.47,13.47,0,0,1-3-.71A1,1,0,0,1,124.24,159.57Z" transform="translate(-26.92 -27.74)"/><path class="cls-59" d="M161.74,123.67c-1.49,0-2.77.82-4.2,1.07,0-.23-.57-.28-.15-.71.75-.75,3.27-1.25,4.21-.71C161.69,123.37,161.69,123.55,161.74,123.67Z" transform="translate(-26.92 -27.74)"/><path class="cls-56" d="M124.32,189.17l-3.78,0a2.71,2.71,0,0,1,2.2-.37c.18.07.52.08.61,0,.83-1.08,2-.51,3-.65.36,1.06-.84.58-1,1.07Z" transform="translate(-26.92 -27.74)"/><path class="cls-58" d="M125.3,189.14c-.07-.77,1.1-.31,1-1.07a22.51,22.51,0,0,0,4.77.55A30.73,30.73,0,0,1,125.3,189.14Z" transform="translate(-26.92 -27.74)"/><path class="cls-59" d="M157.53,124.73a12.73,12.73,0,0,0-4.25,2.59,4.07,4.07,0,0,1,3.07-2.61C156.75,124.69,157.14,124.72,157.53,124.73Z" transform="translate(-26.92 -27.74)"/><path class="cls-62" d="M139.53,132.89c0,.51-.38.87-.51,1.32a1.57,1.57,0,0,1-2.4,0C138,134.61,138.76,133.78,139.53,132.89Z" transform="translate(-26.92 -27.74)"/><path class="cls-46" d="M154.87,133.19l2.13,1c-.52,0-1.05,0-1.56,0C154.39,134.32,154.38,133.9,154.87,133.19Z" transform="translate(-26.92 -27.74)"/><path class="cls-63" d="M134.8,117.58a12.2,12.2,0,0,1,0,5.54Z" transform="translate(-26.92 -27.74)"/><path class="cls-8" d="M130.1,105.53a2.8,2.8,0,0,1,2.27-.2A2.75,2.75,0,0,1,130.1,105.53Z" transform="translate(-26.92 -27.74)"/><path class="cls-64" d="M148.56,184.4a3,3,0,0,1-1.61.53C147.51,183.82,147.51,183.82,148.56,184.4Z" transform="translate(-26.92 -27.74)"/><path class="cls-65" d="M95.22,137.71H98A5.5,5.5,0,0,1,95.22,137.71Z" transform="translate(-26.92 -27.74)"/><path class="cls-14" d="M154.73,108.89c.59-.83,1-.49,1.76-.09Z" transform="translate(-26.92 -27.74)"/><path class="cls-64" d="M150.2,183.88a3.32,3.32,0,0,1-1.65.53C148.82,183.38,149.64,184,150.2,183.88Z" transform="translate(-26.92 -27.74)"/><path class="cls-46" d="M153.31,132l1.4,1.1C153.88,133.22,153.47,132.78,153.31,132Z" transform="translate(-26.92 -27.74)"/><path class="cls-47" d="M74.06,125.75c.32.09.73-.15,1,.36C74.55,126.35,74.22,126.37,74.06,125.75Z" transform="translate(-26.92 -27.74)"/><path class="cls-46" d="M157,134.19a6.15,6.15,0,0,1,1.92.52C158.21,134.75,157.49,134.86,157,134.19Z" transform="translate(-26.92 -27.74)"/><path class="cls-66" d="M94.14,186.49c0,.14,0,.28,0,.43l-1.37-.4Z" transform="translate(-26.92 -27.74)"/><path class="cls-64" d="M151.75,183.34a2.71,2.71,0,0,1-1.37.49C150.67,183.22,151.22,183.31,151.75,183.34Z" transform="translate(-26.92 -27.74)"/><path class="cls-25" d="M167,177c-.11.7-.66.48-1.08.52A1.42,1.42,0,0,1,167,177Z" transform="translate(-26.92 -27.74)"/><path class="cls-67" d="M132.22,142.48l-.05-.35,1.61,0C133.31,142.53,132.74,142.39,132.22,142.48Z" transform="translate(-26.92 -27.74)"/><path class="cls-68" d="M133.75,143.7a.1.1,0,0,1,.16,0c1,.05,2.22-.8,3,.56a21,21,0,0,1,1.77,4.93,6.18,6.18,0,0,1-.9,4.66,11.87,11.87,0,0,1-13.46,4.24,2.94,2.94,0,0,1-1.13-.63,2.76,2.76,0,0,0-.83-.52c-2.48-1.89-4.09-4.17-3.42-7.5.07-.3.07-.61.13-.91.67-3.61.67-3.59,4.29-3.62,1.23,0,2.45-.11,3.68-.16a10.15,10.15,0,0,0,3-.46l.48-.06C131.58,143.94,132.74,144.28,133.75,143.7Z" transform="translate(-26.92 -27.74)"/><path class="cls-69" d="M136.91,144.25c-.89-.79-2-.42-3-.56l1.91-.45C136.66,143.05,136.92,143.51,136.91,144.25Z" transform="translate(-26.92 -27.74)"/><path class="cls-69" d="M133.75,143.7c-.15.8-.8.51-1.27.53-.65,0-1.31,0-2,0A11.08,11.08,0,0,1,133.75,143.7Z" transform="translate(-26.92 -27.74)"/><path class="cls-70" d="M130,144.28a3.9,3.9,0,0,1-3,.46A11.79,11.79,0,0,1,130,144.28Z" transform="translate(-26.92 -27.74)"/><path class="cls-71" d="M122.36,156.93c.4,0,.79,0,.83.52A1.22,1.22,0,0,1,122.36,156.93Z" transform="translate(-26.92 -27.74)"/><path class="cls-72" d="M136.38,113.61c.44-.54.88-.6,1.31,0Z" transform="translate(-26.92 -27.74)"/><path class="cls-72" d="M135.84,114.67a1.27,1.27,0,0,1,.54-1C136.34,114,136.56,114.59,135.84,114.67Z" transform="translate(-26.92 -27.74)"/><path class="cls-68" d="M160.22,133.42a9.51,9.51,0,0,1-5.56-2.11,2,2,0,0,1-.24-3.14,4.35,4.35,0,0,1,.36-.38,10.6,10.6,0,0,1,11.55-1.57c2.3,1.29,2.47,2.8.47,4.51A10.34,10.34,0,0,1,160.22,133.42Z" transform="translate(-26.92 -27.74)"/><path class="cls-73" d="M96.88,136.12a12.62,12.62,0,0,1-4.1-.59,2.22,2.22,0,0,1-1.35-3.28,5.25,5.25,0,0,1,1.4-1.89,9.22,9.22,0,0,1,9.85-.71,2.5,2.5,0,0,1,.42,4.21A8.78,8.78,0,0,1,96.88,136.12Z" transform="translate(-26.92 -27.74)"/><path class="cls-3" d="M121.08,135.83a2.52,2.52,0,0,1,2.21-1.09c1.79,0,3.58,0,5.37.06.74,0,1.63.15,1.74,1.07s-.76,1.21-1.45,1.41c-2.41.69-4.82,1.3-7.34.59A1.41,1.41,0,0,1,121.08,135.83Z" transform="translate(-26.92 -27.74)"/><path class="cls-74" d="M121.08,135.83a2.68,2.68,0,0,0,.53,2C120.53,137.42,120.15,136.79,121.08,135.83Z" transform="translate(-26.92 -27.74)"/></svg>